<svg width="36" height="28" viewBox="0 0 36 28" fill="none" xmlns="http://www.w3.org/2000/svg">
<path d="M4.32021 0.319824C2.34905 0.319824 0.720215 1.94866 0.720215 3.91982C0.720215 5.89099 2.34905 7.51982 4.32021 7.51982C6.29138 7.51982 7.92022 5.89099 7.92022 3.91982C7.92022 1.94866 6.29138 0.319824 4.32021 0.319824ZM9.36022 2.47982V5.35982H35.2802V2.47982H9.36022ZM4.32021 3.19982C4.73492 3.19982 5.04022 3.50512 5.04022 3.91982C5.04022 4.33453 4.73492 4.63982 4.32021 4.63982C3.90551 4.63982 3.60021 4.33453 3.60021 3.91982C3.60021 3.50512 3.90551 3.19982 4.32021 3.19982ZM4.32021 10.3998C2.34052 10.3998 0.720215 12.0201 0.720215 13.9998C0.720215 15.9795 2.34052 17.5998 4.32021 17.5998C6.29991 17.5998 7.92022 15.9795 7.92022 13.9998C7.92022 12.0201 6.29991 10.3998 4.32021 10.3998ZM4.32021 11.8398C5.52168 11.8398 6.48022 12.7984 6.48022 13.9998C6.48022 15.2013 5.52168 16.1598 4.32021 16.1598C3.11875 16.1598 2.16021 15.2013 2.16021 13.9998C2.16021 12.7984 3.11875 11.8398 4.32021 11.8398ZM9.36022 12.5598V15.4398H35.2802V12.5598H9.36022ZM4.32021 20.4798C2.34052 20.4798 0.720215 22.1001 0.720215 24.0798C0.720215 26.0595 2.34052 27.6798 4.32021 27.6798C6.29991 27.6798 7.92022 26.0595 7.92022 24.0798C7.92022 22.1001 6.29991 20.4798 4.32021 20.4798ZM4.32021 21.9198C5.52168 21.9198 6.48022 22.8784 6.48022 24.0798C6.48022 25.2813 5.52168 26.2398 4.32021 26.2398C3.11875 26.2398 2.16021 25.2813 2.16021 24.0798C2.16021 22.8784 3.11875 21.9198 4.32021 21.9198ZM9.36022 22.6398V25.5198H35.2802V22.6398H9.36022Z" fill="#5588E0"/>
</svg>
