<svg width="16" height="16" viewBox="0 0 16 16" fill="none" xmlns="http://www.w3.org/2000/svg">
<path d="M12.1498 9.92582C11.8792 9.76716 11.5465 9.77049 11.2772 9.93049L9.91318 10.7432C9.60784 10.9252 9.22651 10.9038 8.94651 10.6852C8.46251 10.3072 7.68318 9.67116 7.00518 8.99316C6.32718 8.31516 5.69118 7.53582 5.31318 7.05182C5.09451 6.77182 5.07318 6.39049 5.25518 6.08516L6.06784 4.72116C6.22851 4.45182 6.22984 4.11649 6.07118 3.84582L4.06984 0.427155C3.87584 0.0964886 3.49051 -0.066178 3.11784 0.0251554C2.75584 0.113155 2.28584 0.327822 1.79318 0.821155C0.250509 2.36382 -0.568824 4.96582 5.23251 10.7672C11.0338 16.5685 13.6352 15.7498 15.1785 14.2065C15.6725 13.7125 15.8865 13.2418 15.9752 12.8792C16.0652 12.5072 15.9052 12.1245 15.5752 11.9312C14.7512 11.4492 12.9738 10.4085 12.1498 9.92582Z" fill="#5C93F5"/>
</svg>
