<svg width="12" height="18" viewBox="0 0 12 18" fill="none" xmlns="http://www.w3.org/2000/svg">
<path d="M6.00023 0.359863C2.82492 0.359863 0.240234 2.94455 0.240234 6.11986C0.240234 11.2006 5.50664 17.2602 5.73023 17.5161C5.79914 17.5949 5.89617 17.6399 6.00023 17.6399C6.11133 17.6328 6.20133 17.5949 6.27023 17.5161C6.49383 17.256 11.7602 11.0924 11.7602 6.11986C11.7602 2.94455 9.17555 0.359863 6.00023 0.359863ZM6.00023 4.31986C7.19273 4.31986 8.16023 5.28736 8.16023 6.47986C8.16023 7.67236 7.19273 8.63986 6.00023 8.63986C4.80773 8.63986 3.84023 7.67236 3.84023 6.47986C3.84023 5.28736 4.80773 4.31986 6.00023 4.31986Z" fill="#5C93F5"/>
</svg>
