<?xml version="1.0" encoding="utf-8"?><svg viewBox="0 0 57 57" xmlns="http://www.w3.org/2000/svg" xmlns:xlink="http://www.w3.org/1999/xlink"><style>:root>svg{display:none}:root>svg:target{display:block}</style><svg fill="none" viewBox="0 0 36 28" id="icon-acc-01" xmlns="http://www.w3.org/2000/svg"><path d="M4.32.32C2.35.32.72 1.949.72 3.92s1.63 3.6 3.6 3.6c1.971 0 3.6-1.629 3.6-3.6S6.291.32 4.32.32zm5.04 2.16v2.88h25.92V2.48H9.36zm-5.04.72a.7.7 0 01.72.72.7.7 0 01-.72.72.7.7 0 01-.72-.72.7.7 0 01.72-.72zm0 7.2c-1.98 0-3.6 1.62-3.6 3.6s1.62 3.6 3.6 3.6 3.6-1.62 3.6-3.6-1.62-3.6-3.6-3.6zm0 1.44A2.15 2.15 0 016.48 14a2.15 2.15 0 01-2.16 2.16A2.15 2.15 0 012.16 14a2.15 2.15 0 012.16-2.16zm5.04.72v2.88h25.92v-2.88H9.36zm-5.04 7.92c-1.98 0-3.6 1.62-3.6 3.6s1.62 3.6 3.6 3.6 3.6-1.62 3.6-3.6-1.62-3.6-3.6-3.6zm0 1.44a2.15 2.15 0 012.16 2.16 2.15 2.15 0 01-2.16 2.16 2.15 2.15 0 01-2.16-2.16 2.15 2.15 0 012.16-2.16zm5.04.72v2.88h25.92v-2.88H9.36z" fill="#5588E0"/></svg><svg fill="none" viewBox="0 0 40 41" id="icon-acc-02" xmlns="http://www.w3.org/2000/svg"><path d="M19 .4c-.358 0-.716.136-.99.41L8.62 10.2h3.96L19 3.78l6.42 6.42h3.96L19.99.81A1.395 1.395 0 0019 .4zM2.2 13a1.4 1.4 0 00-1.4 1.4v2.8a1.4 1.4 0 001.4 1.4h.232L4.61 31.66A2.802 2.802 0 007.37 34H24.6v-9.8c0-2.316 1.884-4.2 4.2-4.2.921 0 1.813.308 2.548.875l.022.016 3.41 2.428.787-4.72h.233a1.4 1.4 0 001.4-1.4v-2.8a1.4 1.4 0 00-1.4-1.4H2.2zm26.622 9.784a1.4 1.4 0 00-1.422 1.55V36.8a1.4 1.4 0 001.4 1.4c.403 0 .76-.175 1.014-.449l.009.003 2.633-3.111 2.791 5.583a1.4 1.4 0 102.505-1.252l-2.85-5.696 4.083-.733.003-.024c.58-.17 1.012-.686 1.012-1.321 0-.489-.267-.898-.648-1.148l.005-.028-9.576-6.83a1.4 1.4 0 00-.96-.41z" fill="#5588E0"/></svg><svg fill="none" viewBox="0 0 39 37" id="icon-acc-03" xmlns="http://www.w3.org/2000/svg"><path d="M3.8.333A2.942 2.942 0 00.867 3.267v22a5.865 5.865 0 005.866 5.867h9.548a13.261 13.261 0 01-.748-4.4c0-7.305 5.896-13.2 13.2-13.2 1.54 0 3.022.263 4.4.747V3.267A2.942 2.942 0 0030.2.333H3.8zm7.333 4.4h11.734c.806 0 1.466.66 1.466 1.467s-.66 1.467-1.466 1.467H11.133c-.806 0-1.466-.66-1.466-1.467 0-.806.66-1.466 1.466-1.466zm17.6 11.734a10.26 10.26 0 00-10.266 10.267c0 1.583.351 3.065.997 4.4A10.224 10.224 0 0028.734 37 10.26 10.26 0 0039 26.733c0-4.106-2.39-7.627-5.867-9.27a10.038 10.038 0 00-4.4-.996zm0 4.4c.807 0 1.467.66 1.467 1.466v2.934h2.933c.807 0 1.467.66 1.467 1.466 0 .807-.66 1.467-1.467 1.467H30.2v2.934c0 .806-.66 1.466-1.467 1.466-.806 0-1.466-.66-1.466-1.466V28.2h-2.934c-.806 0-1.466-.66-1.466-1.466 0-.807.66-1.467 1.466-1.467h2.934v-2.933c0-.807.66-1.467 1.466-1.467z" fill="#5588E0"/></svg><svg fill="none" viewBox="0 0 11 8" id="icon-arrow" xmlns="http://www.w3.org/2000/svg"><path d="M10.354 4.354a.5.5 0 000-.708L7.172.464a.5.5 0 10-.708.708L9.293 4 6.464 6.828a.5.5 0 10.708.708l3.182-3.182zM0 4.5h10v-1H0v1z" fill="#0A1532"/></svg><svg fill="none" viewBox="0 0 16 9" id="icon-arrow-blue" xmlns="http://www.w3.org/2000/svg"><path d="M15.354 4.854a.5.5 0 000-.708L12.172.964a.5.5 0 10-.708.708L14.293 4.5l-2.829 2.828a.5.5 0 10.708.708l3.182-3.182zM0 5h15V4H0v1z" fill="#5C93F5"/></svg><svg fill="none" viewBox="0 0 20 13" id="icon-arrow-bottom" xmlns="http://www.w3.org/2000/svg"><path opacity=".7" d="M2.35.317L10 7.95 17.65.317 20 2.667l-10 10-10-10L2.35.317z" fill="#5C93F5"/></svg><svg fill="none" viewBox="0 0 10 6" id="icon-arrow-bottom-small" xmlns="http://www.w3.org/2000/svg"><path d="M8.997.594a.402.402 0 00-.28.123L5 4.434 1.283.717a.4.4 0 10-.566.566l4 4a.4.4 0 00.566 0l4-4a.4.4 0 00-.286-.69z" fill="#5C93F5"/></svg><svg viewBox="0 0 8 16" id="icon-arrow-right-small" xmlns="http://www.w3.org/2000/svg"><path d="M.15 1.605c.005.17.075.33.198.448L6.295 8 .348 13.948a.639.639 0 10.905.905l6.4-6.4a.64.64 0 000-.905l-6.4-6.4a.641.641 0 00-1.103.457z"/></svg><svg fill="none" viewBox="0 0 22 19" id="icon-cart" xmlns="http://www.w3.org/2000/svg"><path d="M7.133 12.326h11.645a.639.639 0 00.619-.447l2.578-8.628a.594.594 0 00-.105-.54.64.64 0 00-.227-.181.67.67 0 00-.287-.065H5.645L5.184.483a.613.613 0 00-.226-.347A.663.663 0 004.555 0H.645A.63.63 0 000 .616c0 .341.288.617.645.617h3.392l2.328 10.014c-.685.285-1.166.937-1.166 1.695 0 1.02.868 1.849 1.934 1.849h11.645a.63.63 0 00.644-.616.63.63 0 00-.645-.617H7.133c-.355 0-.645-.276-.645-.616 0-.34.29-.616.645-.616zm-.645 4.314c0 1.02.868 1.849 1.934 1.849 1.066 0 1.934-.83 1.934-1.85 0-1.019-.868-1.848-1.934-1.848-1.066 0-1.934.83-1.934 1.849zm9.067 0c0 1.02.867 1.849 1.933 1.849 1.067 0 1.934-.83 1.934-1.85 0-1.019-.867-1.848-1.934-1.848-1.066 0-1.933.83-1.933 1.849z" fill="#5C93F5"/></svg><svg fill="none" viewBox="0 0 25 25" id="icon-close" xmlns="http://www.w3.org/2000/svg"><rect y="3.537" width="5" height="30" rx="2.5" transform="rotate(-45 0 3.537)" fill="#0A1532"/><rect x="3.537" y="24.749" width="5" height="30" rx="2.5" transform="rotate(-135 3.537 24.749)" fill="#0A1532"/></svg><svg viewBox="0 0 15 15" id="icon-del" xmlns="http://www.w3.org/2000/svg"><path d="M13.215 15L0 1.785 1.785 0 15 13.215 13.215 15zm-11.44 0L0 13.226 13.226 0 15 1.775 1.775 15z"/></svg><svg fill="none" viewBox="0 0 12 18" id="icon-geo" xmlns="http://www.w3.org/2000/svg"><path d="M6 .36A5.768 5.768 0 00.24 6.12c0 5.08 5.267 11.14 5.49 11.396a.357.357 0 00.27.124.37.37 0 00.27-.124c.224-.26 5.49-6.424 5.49-11.396A5.767 5.767 0 006 .36zm0 3.96A2.16 2.16 0 116 8.64 2.16 2.16 0 016 4.32z" fill="#5C93F5"/></svg><svg viewBox="0 0 612 792" id="icon-heart"><path d="M562.413 284.393c-9.68 41.044-32.121 78.438-64.831 108.07L329.588 542.345l-165.11-149.843c-32.771-29.691-55.201-67.076-64.892-108.12-6.965-29.484-4.103-46.14-4.092-46.249l.147-.994c6.395-72.004 56.382-124.273 118.873-124.273 46.111 0 86.703 28.333 105.965 73.933l9.061 21.477 9.061-21.477c18.958-44.901 61.694-73.922 108.896-73.922 62.481 0 112.478 52.27 119 125.208.02.157 2.882 16.823-4.084 46.308z"/></svg><svg fill="none" viewBox="0 0 22 21" id="icon-heart-big" xmlns="http://www.w3.org/2000/svg"><path d="M13.328.786a6.009 6.009 0 012.408-.505 6.01 6.01 0 012.407.505c.762.333 1.453.82 2.033 1.432a6.605 6.605 0 011.351 2.13 6.853 6.853 0 010 5.01 6.602 6.602 0 01-1.351 2.131s0 0 0 0l-8.458 8.918a.99.99 0 01-.718.311.99.99 0 01-.718-.31l-8.458-8.919C.653 10.254 0 8.586 0 6.854 0 5.12.653 3.453 1.824 2.218 2.996.982 4.592.282 6.264.282c1.671 0 3.268.7 4.44 1.936L11 2.53l.296-.312s0 0 0 0c.58-.612 1.27-1.099 2.032-1.432zM18.74 3.64a4.253 4.253 0 00-1.383-.975 4.045 4.045 0 00-3.242 0 4.254 4.254 0 00-1.383.975l-1.014 1.07a.99.99 0 01-.718.31.99.99 0 01-.718-.31L9.267 3.64a4.14 4.14 0 00-3.003-1.315A4.14 4.14 0 003.26 3.64 4.673 4.673 0 002 6.854c0 1.21.457 2.366 1.26 3.213L11 18.228l7.74-8.161c.397-.42.714-.918.931-1.47a4.77 4.77 0 000-3.487 4.555 4.555 0 00-.931-1.47z" fill="red" stroke-width="10" stroke="#AD4242"/></svg><svg fill="none" viewBox="0 0 11 8" id="icon-link-arrow" xmlns="http://www.w3.org/2000/svg"><path d="M10.354 4.354a.5.5 0 000-.708L7.172.464a.5.5 0 10-.708.708L9.293 4 6.464 6.828a.5.5 0 10.708.708l3.182-3.182zM0 4.5h10v-1H0v1z" fill="#0A1532"/></svg><svg fill="none" viewBox="0 0 16 16" id="icon-phone" xmlns="http://www.w3.org/2000/svg"><path d="M12.15 9.926a.856.856 0 00-.873.004l-1.364.813a.854.854 0 01-.966-.058 22.195 22.195 0 01-1.942-1.692 22.193 22.193 0 01-1.692-1.941.854.854 0 01-.058-.967l.813-1.364a.86.86 0 00.003-.875L4.07.427a.863.863 0 00-.952-.402c-.362.088-.832.303-1.325.796-1.542 1.543-2.362 4.145 3.44 9.946 5.8 5.802 8.402 4.983 9.945 3.44.494-.495.708-.965.797-1.328a.859.859 0 00-.4-.948L12.15 9.926z" fill="#5C93F5"/></svg><svg fill="none" viewBox="0 0 20 20" id="icon-search" xmlns="http://www.w3.org/2000/svg"><path d="M8.4.4C3.99.4.4 3.99.4 8.4s3.591 8 8 8c1.917 0 3.678-.68 5.058-1.811l4.776 4.777a.8.8 0 101.131-1.132l-4.776-4.776a7.958 7.958 0 001.81-5.058c0-4.409-3.59-8-8-8zm0 1.6c3.544 0 6.4 2.856 6.4 6.4 0 3.544-2.856 6.4-6.4 6.4A6.388 6.388 0 012 8.4C2 4.856 4.856 2 8.4 2z" fill="#5C93F5"/></svg><svg viewBox="0 0 28 16" id="icon-slider-arrow" xmlns="http://www.w3.org/2000/svg"><path d="M1.771 7a1 1 0 000 2V7zM27.48 8.707a1 1 0 000-1.414L21.115.929A1 1 0 1019.7 2.343L25.357 8 19.7 13.657a1 1 0 001.415 1.414l6.364-6.364zM1.77 9h25V7h-25v2z"/></svg><svg viewBox="0 0 5 7" id="icon-sub-menu" xmlns="http://www.w3.org/2000/svg"><path d="M0 6.178L2.781 3.5 0 .822.856 0 4.5 3.5.856 7 0 6.178z"/></svg><svg fill="none" viewBox="0 0 8 16" id="icon-subscribe-submit" xmlns="http://www.w3.org/2000/svg"><path d="M.15 1.605c.005.17.075.33.198.448L6.295 8 .348 13.948a.639.639 0 10.905.905l6.4-6.4a.64.64 0 000-.905l-6.4-6.4a.641.641 0 00-1.103.457z" fill="#fff"/></svg><svg fill="none" viewBox="0 0 18 19" id="icon-user" xmlns="http://www.w3.org/2000/svg"><path d="M9 .4a4.8 4.8 0 00-4.8 4.8V6a4.8 4.8 0 109.6 0v-.8A4.8 4.8 0 009 .4zM9 13.2c-3.205 0-7.317 1.733-8.5 3.272-.732.951-.036 2.328 1.164 2.328h14.673c1.2 0 1.895-1.377 1.164-2.328C16.317 14.934 12.203 13.2 9 13.2z" fill="#5C93F5"/></svg><svg fill="none" viewBox="0 0 18 18" id="icon-warning" xmlns="http://www.w3.org/2000/svg"><path d="M8.167 4.833h1.666V6.5H8.167V4.833zm0 3.333h1.666v5H8.167v-5zM9 .666A8.336 8.336 0 00.667 9c0 4.6 3.733 8.333 8.333 8.333S17.333 13.6 17.333 9 13.6.667 9 .667zm0 15A6.676 6.676 0 012.333 9 6.676 6.676 0 019 2.333 6.675 6.675 0 0115.667 9 6.675 6.675 0 019 15.666z" fill="#FF7354"/></svg><svg fill="none" viewBox="0 0 40 40" id="logo" xmlns="http://www.w3.org/2000/svg"><g clip-path="url(#clip0_307_1672)"><path d="M21.738 0C9.732 0 0 9.732 0 21.738v18.264h18.264c12.004 0 21.738-9.732 21.738-21.738V0H21.738zm7.442 22.991h-6.189v6.19H17.01v-6.19h-6.19V17.01h6.19v-6.19h5.982L23 17.01h6.178v5.982h.002z" fill="url(#wpaint0_linear_307_1672)"/><path opacity=".3" d="M0 21.738v18.264l17.009-17.01h-6.19v-5.983h6.19v-6.19h5.982L23 16.999 40 0H21.736C9.732 0 0 9.732 0 21.738z" fill="#fff"/></g><defs><linearGradient id="wpaint0_linear_307_1672" x1="20.001" y1="0" x2="20.001" y2="40" gradientUnits="userSpaceOnUse"><stop stop-color="#5C93F5"/><stop offset=".82" stop-color="#9CB7E6"/></linearGradient></defs></svg><svg fill="none" viewBox="0 0 57 57" id="result-logo" xmlns="http://www.w3.org/2000/svg"><g clip-path="url(#xclip0_279_4045)"><path d="M30.977 0C13.868 0 0 13.868 0 30.977v26.026h26.026c17.106 0 30.977-13.868 30.977-30.977V0H30.977zm10.605 32.762h-8.82v8.82h-8.524v-8.82h-8.82v-8.524h8.82v-8.82h8.524l.013 8.82h8.804v8.524h.003z" fill="url(#xpaint0_linear_279_4045)"/><path opacity=".3" d="M0 30.977v26.026l24.238-24.24h-8.82v-8.525h8.82v-8.82h8.524l.013 8.804L57 0H30.974C13.868 0 0 13.868 0 30.977z" fill="#fff"/><g clip-path="url(#xclip1_279_4045)"><path d="M30.977 0C13.868 0 0 13.868 0 30.977v26.026h26.026c17.106 0 30.977-13.868 30.977-30.977V0H30.977zm10.605 32.762h-8.82v8.82h-8.524v-8.82h-8.82v-8.524h8.82v-8.82h8.524l.013 8.82h8.804v8.524h.003z" fill="url(#xpaint1_linear_279_4045)"/><path opacity=".3" d="M0 30.977v26.026l24.238-24.24h-8.82v-8.525h8.82v-8.82h8.524l.013 8.804L57 0H30.974C13.868 0 0 13.868 0 30.977z" fill="#fff"/></g></g><defs><linearGradient id="xpaint0_linear_279_4045" x1="28.502" y1="0" x2="28.502" y2="57" gradientUnits="userSpaceOnUse"><stop stop-color="#fff"/><stop offset=".82" stop-color="#DFDFDF"/></linearGradient><linearGradient id="xpaint1_linear_279_4045" x1="28.502" y1="0" x2="28.502" y2="57" gradientUnits="userSpaceOnUse"><stop stop-color="#3666BA"/><stop offset=".82" stop-color="#768FBA"/></linearGradient><clipPath id="xclip0_279_4045"><path fill="#fff" d="M0 0h57v57H0z"/></clipPath><clipPath id="xclip1_279_4045"><path fill="#fff" d="M0 0h57v57H0z"/></clipPath></defs></svg></svg>