<svg width="39" height="37" fill="none" xmlns="http://www.w3.org/2000/svg"><path d="M3.8.333A2.942 2.942 0 00.867 3.267v22a5.865 5.865 0 005.866 5.867h9.548a13.261 13.261 0 01-.748-4.4c0-7.305 5.896-13.2 13.2-13.2 1.54 0 3.022.263 4.4.747V3.267A2.942 2.942 0 0030.2.333H3.8zm7.333 4.4h11.734c.806 0 1.466.66 1.466 1.467s-.66 1.467-1.466 1.467H11.133A1.47 1.47 0 019.667 6.2c0-.806.66-1.466 1.466-1.466zm17.6 11.734a10.26 10.26 0 00-10.266 10.267c0 1.583.351 3.065.997 4.4A10.224 10.224 0 0028.734 37 10.26 10.26 0 0039 26.733c0-4.106-2.39-7.627-5.867-9.27a10.038 10.038 0 00-4.4-.996zm0 4.4c.807 0 1.467.66 1.467 1.466v2.934h2.933c.807 0 1.467.66 1.467 1.466 0 .807-.66 1.467-1.467 1.467H30.2v2.934a1.47 1.47 0 01-1.467 1.466 1.47 1.47 0 01-1.466-1.466V28.2h-2.934a1.47 1.47 0 01-1.466-1.466c0-.807.66-1.467 1.466-1.467h2.934v-2.933c0-.807.66-1.467 1.466-1.467z" fill="#5588E0"/></svg>.1334 17.4637C31.7987 16.8184 30.3174 16.4668 28.7334 16.4668ZM28.7334 20.8668C29.54 20.8668 30.2 21.5268 30.2 22.3335V25.2668H33.1334C33.94 25.2668 34.6 25.9268 34.6 26.7335C34.6 27.5402 33.94 28.2002 33.1334 28.2002H30.2V31.1335C30.2 31.9402 29.54 32.6002 28.7334 32.6002C27.9267 32.6002 27.2667 31.9402 27.2667 31.1335V28.2002H24.3334C23.5267 28.2002 22.8667 27.5402 22.8667 26.7335C22.8667 25.9268 23.5267 25.2668 24.3334 25.2668H27.2667V22.3335C27.2667 21.5268 27.9267 20.8668 28.7334 20.8668Z" fill="#5588E0"/>
</svg>
