<svg width="22" height="19" viewBox="0 0 22 19" fill="none" xmlns="http://www.w3.org/2000/svg">
<path d="M7.13279 12.3258H18.7775C19.0658 12.3258 19.3188 12.1434 19.3968 11.8786L21.9751 3.25055C22.0305 3.06456 21.9925 2.86476 21.8705 2.7102C21.8103 2.63409 21.7325 2.57236 21.6431 2.52984C21.5538 2.48731 21.4554 2.46516 21.3556 2.46512H5.64479L5.18404 0.482753C5.15225 0.345814 5.07256 0.22334 4.95813 0.135565C4.8437 0.0477912 4.70138 -3.09875e-05 4.55467 1.50644e-08H0.644529C0.288319 1.50644e-08 0 0.275683 0 0.616281C0 0.957002 0.288319 1.23256 0.644529 1.23256H4.03733L6.3649 11.2471C5.68002 11.5318 5.1992 12.1836 5.1992 12.9421C5.1992 13.9615 6.06661 14.7909 7.13279 14.7909H18.7775C19.1338 14.7909 19.422 14.5153 19.422 14.1746C19.422 13.834 19.1338 13.5583 18.7775 13.5583H7.13279C6.77779 13.5583 6.48826 13.2821 6.48826 12.9421C6.48826 12.602 6.77779 12.3258 7.13279 12.3258ZM6.48826 16.6397C6.48826 17.6593 7.35571 18.4886 8.42202 18.4886C9.48816 18.4886 10.3556 17.6593 10.3556 16.6397C10.3556 15.6203 9.48816 14.7909 8.42202 14.7909C7.35571 14.7909 6.48826 15.6203 6.48826 16.6397ZM15.5548 16.6397C15.5548 17.6593 16.4222 18.4886 17.4884 18.4886C18.5547 18.4886 19.422 17.6593 19.422 16.6397C19.422 15.6203 18.5547 14.7909 17.4884 14.7909C16.4222 14.7909 15.5548 15.6203 15.5548 16.6397Z" fill="#5C93F5"/>
</svg>
