<svg width="28" height="16" viewBox="0 0 28 16"  xmlns="http://www.w3.org/2000/svg">
<path d="M1.77148 7C1.2192 7 0.771484 7.44772 0.771484 8C0.771484 8.55228 1.2192 9 1.77148 9L1.77148 7ZM27.4786 8.70711C27.8691 8.31658 27.8691 7.68342 27.4786 7.29289L21.1146 0.928932C20.7241 0.538408 20.0909 0.538408 19.7004 0.928932C19.3099 1.31946 19.3099 1.95262 19.7004 2.34315L25.3573 8L19.7004 13.6569C19.3099 14.0474 19.3099 14.6805 19.7004 15.0711C20.0909 15.4616 20.7241 15.4616 21.1146 15.0711L27.4786 8.70711ZM1.77148 9L26.7715 9V7L1.77148 7L1.77148 9Z" />
</svg>
